<svg width="36" height="36" viewBox="0 0 36 36" fill="none" xmlns="http://www.w3.org/2000/svg">
<path d="M31.7812 6.125H4.21875C4.06406 6.125 3.9375 6.25156 3.9375 6.40625V8.65625C3.9375 8.81094 4.06406 8.9375 4.21875 8.9375H31.7812C31.9359 8.9375 32.0625 8.81094 32.0625 8.65625V6.40625C32.0625 6.25156 31.9359 6.125 31.7812 6.125ZM31.7812 28.0625H4.21875C4.06406 28.0625 3.9375 28.1891 3.9375 28.3438V30.5938C3.9375 30.7484 4.06406 30.875 4.21875 30.875H31.7812C31.9359 30.875 32.0625 30.7484 32.0625 30.5938V28.3438C32.0625 28.1891 31.9359 28.0625 31.7812 28.0625ZM31.7812 17.0938H4.21875C4.06406 17.0938 3.9375 17.2203 3.9375 17.375V19.625C3.9375 19.7797 4.06406 19.9062 4.21875 19.9062H31.7812C31.9359 19.9062 32.0625 19.7797 32.0625 19.625V17.375C32.0625 17.2203 31.9359 17.0938 31.7812 17.0938Z" fill="white"/>
</svg>
