<svg width="24" height="24" viewBox="0 0 24 24" fill="none" xmlns="http://www.w3.org/2000/svg">
<path d="M15.0141 10.0734H21.0398C21.225 10.0734 21.375 9.92344 21.375 9.73828V3.71016C21.375 3.525 21.225 3.375 21.0398 3.375H15.0141C14.8289 3.375 14.6789 3.525 14.6789 3.71016V5.8875H11.4984C11.407 5.8875 11.332 5.9625 11.332 6.05391V11.2453H9.32344V8.98359C9.32344 8.79844 9.17344 8.64844 8.98828 8.64844H2.96016C2.775 8.64844 2.625 8.79844 2.625 8.98359V15.0117C2.625 15.1969 2.775 15.3469 2.96016 15.3469H8.98594C9.17109 15.3469 9.32109 15.1969 9.32109 15.0117V12.75H11.3297V17.9414C11.3297 18.0328 11.4047 18.1078 11.4961 18.1078H14.6766V20.2852C14.6766 20.4703 14.8266 20.6203 15.0117 20.6203H21.0375C21.2227 20.6203 21.3727 20.4703 21.3727 20.2852V14.2617C21.3727 14.0766 21.2227 13.9266 21.0375 13.9266H15.0141C14.8289 13.9266 14.6789 14.0766 14.6789 14.2617V16.6055H12.8367V7.39453H14.6789V9.73828C14.6789 9.92344 14.8289 10.0734 15.0141 10.0734ZM16.268 4.96641H19.7836V8.48438H16.268V4.96641ZM7.73203 13.7578H4.21641V10.2422H7.73203V13.7578ZM16.268 15.518H19.7836V19.0359H16.268V15.518Z" fill="black"/>
</svg>
