<svg width="24" height="24" viewBox="0 0 24 24" fill="none" xmlns="http://www.w3.org/2000/svg">
<path d="M19.3167 16.404C18.73 15.8169 18.0445 15.3377 17.2917 14.9883C18.3534 14.1282 19.0307 12.8157 19.0307 11.3438C19.0307 8.74694 16.8651 6.61647 14.2682 6.65631C11.7112 6.69616 9.65103 8.77975 9.65103 11.3438C9.65103 12.8157 10.3307 14.1282 11.3901 14.9883C10.6371 15.3374 9.95154 15.8166 9.36509 16.404C8.0854 17.686 7.35884 19.3782 7.31196 21.1829C7.31134 21.2079 7.31573 21.2328 7.32487 21.2561C7.33401 21.2794 7.34772 21.3006 7.3652 21.3185C7.38267 21.3364 7.40355 21.3506 7.42661 21.3604C7.44967 21.3701 7.47444 21.3751 7.49946 21.3751H8.81196C8.91275 21.3751 8.99712 21.2954 8.99946 21.1946C9.044 19.8352 9.59478 18.5626 10.5627 17.5969C11.0581 17.099 11.6472 16.7042 12.2962 16.4355C12.9451 16.1667 13.6409 16.0294 14.3432 16.0313C15.7706 16.0313 17.1135 16.5868 18.1237 17.5969C19.0893 18.5626 19.6401 19.8352 19.687 21.1946C19.6893 21.2954 19.7737 21.3751 19.8745 21.3751H21.187C21.212 21.3751 21.2368 21.3701 21.2598 21.3604C21.2829 21.3506 21.3038 21.3364 21.3212 21.3185C21.3387 21.3006 21.3524 21.2794 21.3616 21.2561C21.3707 21.2328 21.3751 21.2079 21.3745 21.1829C21.3276 19.3782 20.601 17.686 19.3167 16.404ZM14.3432 14.3438C13.5417 14.3438 12.787 14.0321 12.2221 13.4649C11.9387 13.1837 11.7147 12.8482 11.5637 12.4786C11.4127 12.1089 11.3377 11.7126 11.3432 11.3133C11.3502 10.5446 11.6573 9.80162 12.194 9.25084C12.7565 8.67428 13.5088 8.35319 14.3127 8.34381C15.1073 8.33678 15.8784 8.64616 16.4456 9.20162C17.0268 9.77116 17.3456 10.5329 17.3456 11.3438C17.3456 12.1454 17.0338 12.8977 16.4667 13.4649C16.1884 13.7445 15.8574 13.9661 15.493 14.117C15.1285 14.2679 14.7377 14.345 14.3432 14.3438ZM8.47212 11.9626C8.45103 11.7587 8.43931 11.5524 8.43931 11.3438C8.43931 10.9712 8.47446 10.6079 8.54009 10.254C8.5565 10.1696 8.51196 10.0829 8.43462 10.0477C8.11587 9.90475 7.8229 9.70787 7.56978 9.45944C7.27151 9.17024 7.0368 8.82203 6.88063 8.43705C6.72446 8.05207 6.65025 7.63876 6.66274 7.2235C6.68384 6.47116 6.98618 5.75631 7.51353 5.21725C8.09243 4.62428 8.87056 4.30084 9.6979 4.31022C10.4456 4.31725 11.1674 4.60553 11.7135 5.11647C11.8987 5.28991 12.0581 5.48209 12.1917 5.68834C12.2385 5.761 12.3299 5.79147 12.4096 5.76334C12.8221 5.62037 13.2581 5.51959 13.7057 5.47272C13.837 5.45866 13.912 5.31803 13.8534 5.20084C13.0917 3.69381 11.5354 2.65319 9.7354 2.62506C7.13618 2.58522 4.97056 4.71569 4.97056 7.31022C4.97056 8.78209 5.6479 10.0946 6.70962 10.9547C5.96431 11.2993 5.27759 11.7751 4.68228 12.3704C3.3979 13.6524 2.67134 15.3446 2.62446 17.1516C2.62384 17.1766 2.62823 17.2015 2.63737 17.2248C2.64651 17.2481 2.66022 17.2693 2.6777 17.2872C2.69517 17.3052 2.71605 17.3194 2.73911 17.3291C2.76217 17.3388 2.78694 17.3438 2.81196 17.3438H4.12681C4.22759 17.3438 4.31196 17.2641 4.31431 17.1633C4.35884 15.804 4.90962 14.5313 5.87759 13.5657C6.56665 12.8766 7.4104 12.3985 8.3315 12.1665C8.4229 12.143 8.48384 12.0563 8.47212 11.9626Z" fill="#1890FF"/>
</svg>
