<svg width="24" height="24" viewBox="0 0 24 24" fill="none" xmlns="http://www.w3.org/2000/svg">
<path d="M19.3168 16.404C18.7301 15.8169 18.0446 15.3377 17.2918 14.9883C18.3535 14.1282 19.0308 12.8157 19.0308 11.3438C19.0308 8.74694 16.8652 6.61647 14.2683 6.65631C11.7113 6.69616 9.65113 8.77975 9.65113 11.3438C9.65113 12.8157 10.3308 14.1282 11.3902 14.9883C10.6372 15.3374 9.95165 15.8166 9.3652 16.404C8.08551 17.686 7.35895 19.3782 7.31207 21.1829C7.31145 21.2079 7.31583 21.2328 7.32498 21.2561C7.33412 21.2794 7.34783 21.3006 7.3653 21.3185C7.38278 21.3364 7.40366 21.3506 7.42672 21.3604C7.44978 21.3701 7.47455 21.3751 7.49957 21.3751H8.81207C8.91285 21.3751 8.99723 21.2954 8.99957 21.1946C9.0441 19.8352 9.59488 18.5626 10.5629 17.5969C11.0582 17.099 11.6474 16.7042 12.2963 16.4355C12.9452 16.1667 13.641 16.0294 14.3433 16.0313C15.7707 16.0313 17.1136 16.5868 18.1238 17.5969C19.0894 18.5626 19.6402 19.8352 19.6871 21.1946C19.6894 21.2954 19.7738 21.3751 19.8746 21.3751H21.1871C21.2121 21.3751 21.2369 21.3701 21.2599 21.3604C21.283 21.3506 21.3039 21.3364 21.3213 21.3185C21.3388 21.3006 21.3525 21.2794 21.3617 21.2561C21.3708 21.2328 21.3752 21.2079 21.3746 21.1829C21.3277 19.3782 20.6011 17.686 19.3168 16.404ZM14.3433 14.3438C13.5418 14.3438 12.7871 14.0321 12.2222 13.4649C11.9388 13.1837 11.7148 12.8482 11.5638 12.4786C11.4128 12.1089 11.3378 11.7126 11.3433 11.3133C11.3504 10.5446 11.6574 9.80162 12.1941 9.25084C12.7566 8.67428 13.5089 8.35319 14.3129 8.34381C15.1074 8.33678 15.8785 8.64616 16.4457 9.20162C17.0269 9.77116 17.3457 10.5329 17.3457 11.3438C17.3457 12.1454 17.0339 12.8977 16.4668 13.4649C16.1885 13.7445 15.8575 13.9661 15.4931 14.117C15.1286 14.2679 14.7378 14.345 14.3433 14.3438ZM8.47223 11.9626C8.45113 11.7587 8.43941 11.5524 8.43941 11.3438C8.43941 10.9712 8.47457 10.6079 8.5402 10.254C8.5566 10.1696 8.51207 10.0829 8.43473 10.0477C8.11598 9.90475 7.82301 9.70787 7.56988 9.45944C7.27162 9.17024 7.03691 8.82203 6.88074 8.43705C6.72457 8.05207 6.65036 7.63876 6.66285 7.2235C6.68395 6.47116 6.98629 5.75631 7.51363 5.21725C8.09254 4.62428 8.87066 4.30084 9.69801 4.31022C10.4457 4.31725 11.1675 4.60553 11.7136 5.11647C11.8988 5.28991 12.0582 5.48209 12.1918 5.68834C12.2386 5.761 12.33 5.79147 12.4097 5.76334C12.8222 5.62037 13.2582 5.51959 13.7058 5.47272C13.8371 5.45866 13.9121 5.31803 13.8535 5.20084C13.0918 3.69381 11.5355 2.65319 9.73551 2.62506C7.13629 2.58522 4.97066 4.71569 4.97066 7.31022C4.97066 8.78209 5.64801 10.0946 6.70973 10.9547C5.96441 11.2993 5.2777 11.7751 4.68238 12.3704C3.39801 13.6524 2.67145 15.3446 2.62457 17.1516C2.62394 17.1766 2.62833 17.2015 2.63747 17.2248C2.64662 17.2481 2.66033 17.2693 2.6778 17.2872C2.69528 17.3052 2.71616 17.3194 2.73922 17.3291C2.76228 17.3388 2.78705 17.3438 2.81207 17.3438H4.12691C4.2277 17.3438 4.31207 17.2641 4.31441 17.1633C4.35895 15.804 4.90973 14.5313 5.8777 13.5657C6.56676 12.8766 7.41051 12.3985 8.3316 12.1665C8.42301 12.143 8.48395 12.0563 8.47223 11.9626Z" fill="black"/>
</svg>
